# xmcd
#
# Track frame offsets: 
#        162
#        13822
#        29817
#        52005
#        69915
#        81987
#        102130
#        113587
#        133537
#
# Disc length: 2006 seconds
#
# Revision: 5
# Processed by: cddbd v1.5.2PL0 Copyright (c) Steve Scherf et al.
# Submitted via: ExactAudioCopy v1.0b1
#
DISCID=7507d409
DTITLE=Lightnin' Hopkins - Mojo Hand
DYEAR=1990
DGENRE=Blues
TTITLE0=Mojo Hand
TTITLE1=Coffee for Mama
TTITLE2=Awful Dream
TTITLE3=Black Mare Trot
TTITLE4=Have You Ever Loved a Woman
TTITLE5=Glory Bee
TTITLE6=Sometimes She Will
TTITLE7=Shine On, Moon!
TTITLE8=Santa
EXTD=Golden Classics, Collectable Records
EXTT0=
EXTT1=
EXTT2=
EXTT3=
EXTT4=
EXTT5=
EXTT6=
EXTT7=
EXTT8=
PLAYORDER=
